# xmcd
#
# Track frame offsets:
#	150
#	28417
#	45997
#	63372
#	72915
#	114447
#	151900
#	175672
#	195517
#	221606
#
# Disc length: 3323 seconds
#
# Revision: 7
# Processed by: cddbd v1.5.2PL0 Copyright (c) Steve Scherf et al.
# Submitted via: Jack! The Knife 20 Magnifico
#
DISCID=830cf90a
DTITLE=Flotsam And Jetsam - Doomsday For The Deceiver
DYEAR=1986
DGENRE=Metal
TTITLE0=Hammerhead
TTITLE1=Iron Tears
TTITLE2=Desecrator
TTITLE3=Fade To Black
TTITLE4=Doomsday For The Deceiver
TTITLE5=Metalshock
TTITLE6=She Took An Axe
TTITLE7=U.S.L.W.
TTITLE8=Der Fuhrer
TTITLE9=Flotzilla
EXTD=Brian Slagel and Flotsam and Jetsam
EXTT0=Jason Newsted
EXTT1=Newsted, Lowe
EXTT2=Jason Newsted
EXTT3=Jason Newsted
EXTT4=Jason Newsted
EXTT5=Newsted, A.K.
EXTT6=Jason Newsted
EXTT7=Newsted, Carlson
EXTT8=Jason Newsted
EXTT9=Jason Newsted
PLAYORDER=
